{
  "accessors": [
    {
      "bufferView": 2,
      "componentType": 5126,
      "count": 887,
      "max": [
        306.0014953613281,
        622.5784301757813,
        19.021726608276367
      ],
      "min": [
        -306.1747131347656,
        -622.3833618164063,
        -7.920000076293945
      ],
      "type": "VEC3"
    },
    {
      "bufferView": 2,
      "byteOffset": 10644,
      "componentType": 5126,
      "count": 887,
      "max": [
        0.8702245354652405,
        0.868514358997345,
        1.0
      ],
      "min": [
        -0.8702269196510315,
        -0.8685206174850464,
        -1.0
      ],
      "type": "VEC3"
    },
    {
      "bufferView": 1,
      "componentType": 5126,
      "count": 887,
      "max": [
        0.9582423567771912,
        0.9656341075897217
      ],
      "min": [
        0.48596957325935364,
        0.03264129161834717
      ],
      "type": "VEC2"
    },
    {
      "bufferView": 0,
      "componentType": 5125,
      "count": 3378,
      "type": "SCALAR"
    },
    {
      "bufferView": 2,
      "byteOffset": 21288,
      "componentType": 5126,
      "count": 2406,
      "max": [
        308.13482666015625,
        624.5166625976563,
        19.021726608276367
      ],
      "min": [
        -313.13482666015625,
        -624.5166625976563,
        -67.05838012695313
      ],
      "type": "VEC3"
    },
    {
      "bufferView": 2,
      "byteOffset": 50160,
      "componentType": 5126,
      "count": 2406,
      "max": [
        1.0,
        1.0,
        1.0
      ],
      "min": [
        -1.0,
        -1.0,
        -1.0
      ],
      "type": "VEC3"
    },
    {
      "bufferView": 1,
      "byteOffset": 7096,
      "componentType": 5126,
      "count": 2406,
      "max": [
        0.4556818902492523,
        0.9643895030021667
      ],
      "min": [
        0.02682303637266159,
        0.028394222259521484
      ],
      "type": "VEC2"
    },
    {
      "bufferView": 0,
      "byteOffset": 13512,
      "componentType": 5125,
      "count": 7920,
      "type": "SCALAR"
    }
  ],
  "asset": {
    "extras": {
      "author": "nurbs (https://sketchfab.com/mertapaydin)",
      "license": "CC-BY-4.0 (http://creativecommons.org/licenses/by/4.0/)",
      "source": "https://sketchfab.com/3d-models/phone-case-8bb19b238bb9459788ecc6acc0c25425",
      "title": "phone case"
    },
    "generator": "Sketchfab-13.51.0",
    "version": "2.0"
  },
  "bufferViews": [
    {
      "buffer": 0,
      "byteLength": 45192,
      "name": "floatBufferViews",
      "target": 34963
    },
    {
      "buffer": 0,
      "byteLength": 26344,
      "byteOffset": 45192,
      "byteStride": 8,
      "name": "floatBufferViews",
      "target": 34962
    },
    {
      "buffer": 0,
      "byteLength": 79032,
      "byteOffset": 71536,
      "byteStride": 12,
      "name": "floatBufferViews",
      "target": 34962
    }
  ],
  "buffers": [
    {
      "byteLength": 150568,
      "uri": "scene.bin"
    }
  ],
  "extensionsUsed": [
    "KHR_materials_transmission"
  ],
  "images": [
    {
      "uri": "textures/material_baseColor.png"
    },
    {
      "uri": "textures/material_transmission.png"
    },
    {
      "uri": "textures/material_1_baseColor.jpeg"
    },
    {
      "uri": "textures/material_1_metallicRoughness.png"
    }
  ],
  "materials": [
    {
      "alphaMode": "BLEND",
      "doubleSided": true,
      "extensions": {
        "KHR_materials_transmission": {
          "transmissionFactor": 1.0,
          "transmissionTexture": {
            "index": 1
          }
        }
      },
      "name": "material",
      "pbrMetallicRoughness": {
        "baseColorTexture": {
          "index": 0
        },
        "metallicFactor": 0.0,
        "roughnessFactor": 0.6636414338985142
      }
    },
    {
      "doubleSided": true,
      "name": "material_1",
      "pbrMetallicRoughness": {
        "baseColorTexture": {
          "index": 2
        },
        "metallicFactor": 0.7009768451519537,
        "metallicRoughnessTexture": {
          "index": 3
        }
      }
    }
  ],
  "meshes": [
    {
      "name": "Plane_PBR_0",
      "primitives": [
        {
          "attributes": {
            "NORMAL": 1,
            "POSITION": 0,
            "TEXCOORD_0": 2
          },
          "indices": 3,
          "material": 0,
          "mode": 4
        }
      ]
    },
    {
      "name": "Plane_1_Mat_0",
      "primitives": [
        {
          "attributes": {
            "NORMAL": 5,
            "POSITION": 4,
            "TEXCOORD_0": 6
          },
          "indices": 7,
          "material": 1,
          "mode": 4
        }
      ]
    }
  ],
  "nodes": [
    {
      "children": [
        1
      ],
      "matrix": [
        0.013560650870203972,
        0.0,
        0.0,
        0.0,
        0.0,
        3.011069365000723e-18,
        -0.013560650870203972,
        0.0,
        0.0,
        0.013560650870203972,
        3.011069365000723e-18,
        0.0,
        0.0,
        0.0,
        0.0,
        1.0
      ],
      "name": "Sketchfab_model"
    },
    {
      "children": [
        2
      ],
      "matrix": [
        0.009999999776482582,
        0.0,
        0.0,
        0.0,
        0.0,
        0.0,
        0.009999999776482582,
        0.0,
        0.0,
        -0.009999999776482582,
        0.0,
        0.0,
        0.0,
        0.0,
        0.0,
        1.0
      ],
      "name": "phone case.fbx"
    },
    {
      "children": [
        3,
        5
      ],
      "name": "RootNode"
    },
    {
      "children": [
        4
      ],
      "matrix": [
        1.0,
        0.0,
        0.0,
        0.0,
        0.0,
        1.0,
        0.0,
        0.0,
        0.0,
        0.0,
        1.0,
        0.0,
        0.0,
        0.0,
        28.453025817871094,
        1.0
      ],
      "name": "Plane"
    },
    {
      "mesh": 0,
      "name": "Plane_PBR_0"
    },
    {
      "children": [
        6
      ],
      "matrix": [
        1.0,
        0.0,
        0.0,
        0.0,
        0.0,
        1.0,
        0.0,
        0.0,
        0.0,
        0.0,
        1.0,
        0.0,
        0.0,
        0.0,
        28.453025817871094,
        1.0
      ],
      "name": "Plane_1"
    },
    {
      "mesh": 1,
      "name": "Plane_1_Mat_0"
    }
  ],
  "samplers": [
    {
      "magFilter": 9729,
      "minFilter": 9987,
      "wrapS": 10497,
      "wrapT": 10497
    }
  ],
  "scene": 0,
  "scenes": [
    {
      "name": "Sketchfab_Scene",
      "nodes": [
        0
      ]
    }
  ],
  "textures": [
    {
      "sampler": 0,
      "source": 0
    },
    {
      "sampler": 0,
      "source": 1
    },
    {
      "sampler": 0,
      "source": 2
    },
    {
      "sampler": 0,
      "source": 3
    }
  ]
}
